<svg width="245" height="56" viewBox="0 0 245 56" fill="none" xmlns="http://www.w3.org/2000/svg">
<path d="M26.456 17.04C25.7973 15.8267 24.844 14.908 23.596 14.284C22.3827 13.6253 20.944 13.296 19.28 13.296C16.4027 13.296 14.0973 14.2493 12.364 16.156C10.6307 18.028 9.764 20.5413 9.764 23.696C9.764 27.0587 10.6653 29.6933 12.468 31.6C14.3053 33.472 16.8187 34.408 20.008 34.408C22.192 34.408 24.0293 33.8533 25.52 32.744C27.0453 31.6347 28.1547 30.04 28.848 27.96H17.564V21.408H36.908V29.676C36.2493 31.8947 35.1227 33.9573 33.528 35.864C31.968 37.7707 29.9747 39.3133 27.548 40.492C25.1213 41.6707 22.3827 42.26 19.332 42.26C15.7267 42.26 12.5027 41.48 9.66 39.92C6.852 38.3253 4.65067 36.124 3.056 33.316C1.496 30.508 0.716 27.3013 0.716 23.696C0.716 20.0907 1.496 16.884 3.056 14.076C4.65067 11.2333 6.852 9.032 9.66 7.472C12.468 5.87733 15.6747 5.08 19.28 5.08C23.648 5.08 27.3227 6.13733 30.304 8.252C33.32 10.3667 35.3133 13.296 36.284 17.04H26.456ZM50.7254 17.82C51.7654 16.2253 53.0654 14.9773 54.6254 14.076C56.1854 13.14 57.9187 12.672 59.8254 12.672V22.084H57.3814C55.1627 22.084 53.4987 22.5693 52.3894 23.54C51.28 24.476 50.7254 26.14 50.7254 28.532V42H41.8334V12.984H50.7254V17.82ZM77.2836 42.416C74.4409 42.416 71.8756 41.8093 69.5876 40.596C67.3342 39.3827 65.5489 37.6493 64.2316 35.396C62.9489 33.1427 62.3076 30.508 62.3076 27.492C62.3076 24.5107 62.9662 21.8933 64.2836 19.64C65.6009 17.352 67.4036 15.6013 69.6916 14.388C71.9796 13.1747 74.5449 12.568 77.3876 12.568C80.2302 12.568 82.7956 13.1747 85.0836 14.388C87.3716 15.6013 89.1742 17.352 90.4916 19.64C91.8089 21.8933 92.4676 24.5107 92.4676 27.492C92.4676 30.4733 91.7916 33.108 90.4396 35.396C89.1222 37.6493 87.3022 39.3827 84.9796 40.596C82.6916 41.8093 80.1262 42.416 77.2836 42.416ZM77.2836 34.72C78.9822 34.72 80.4209 34.096 81.5996 32.848C82.8129 31.6 83.4196 29.8147 83.4196 27.492C83.4196 25.1693 82.8302 23.384 81.6516 22.136C80.5076 20.888 79.0862 20.264 77.3876 20.264C75.6542 20.264 74.2156 20.888 73.0716 22.136C71.9276 23.3493 71.3556 25.1347 71.3556 27.492C71.3556 29.8147 71.9102 31.6 73.0196 32.848C74.1636 34.096 75.5849 34.72 77.2836 34.72ZM138.837 12.984L130.985 42H121.157L116.581 23.176L111.849 42H102.073L94.1689 12.984H103.061L107.169 33.732L112.057 12.984H121.469L126.409 33.628L130.465 12.984H138.837ZM146.7 9.968C145.14 9.968 143.857 9.51733 142.852 8.616C141.881 7.68 141.396 6.536 141.396 5.184C141.396 3.79733 141.881 2.65333 142.852 1.752C143.857 0.815997 145.14 0.347997 146.7 0.347997C148.225 0.347997 149.473 0.815997 150.444 1.752C151.449 2.65333 151.952 3.79733 151.952 5.184C151.952 6.536 151.449 7.68 150.444 8.616C149.473 9.51733 148.225 9.968 146.7 9.968ZM151.12 12.984V42H142.228V12.984H151.12ZM173.736 34.46V42H169.212C165.988 42 163.475 41.22 161.672 39.66C159.869 38.0653 158.968 35.4827 158.968 31.912V20.368H155.432V12.984H158.968V5.912H167.86V12.984H173.684V20.368H167.86V32.016C167.86 32.8827 168.068 33.5067 168.484 33.888C168.9 34.2693 169.593 34.46 170.564 34.46H173.736ZM207.341 12.984V42H198.449V38.048C197.548 39.3307 196.317 40.3707 194.757 41.168C193.232 41.9307 191.533 42.312 189.661 42.312C187.442 42.312 185.484 41.8267 183.785 40.856C182.086 39.8507 180.769 38.412 179.833 36.54C178.897 34.668 178.429 32.4667 178.429 29.936V12.984H187.269V28.74C187.269 30.6813 187.772 32.1893 188.777 33.264C189.782 34.3387 191.134 34.876 192.833 34.876C194.566 34.876 195.936 34.3387 196.941 33.264C197.946 32.1893 198.449 30.6813 198.449 28.74V12.984H207.341ZM222.62 17.092C223.487 15.74 224.683 14.648 226.208 13.816C227.733 12.984 229.519 12.568 231.564 12.568C233.956 12.568 236.123 13.1747 238.064 14.388C240.005 15.6013 241.531 17.3347 242.64 19.588C243.784 21.8413 244.356 24.4587 244.356 27.44C244.356 30.4213 243.784 33.056 242.64 35.344C241.531 37.5973 240.005 39.348 238.064 40.596C236.123 41.8093 233.956 42.416 231.564 42.416C229.553 42.416 227.768 42 226.208 41.168C224.683 40.336 223.487 39.2613 222.62 37.944V55.832H213.728V12.984H222.62V17.092ZM235.308 27.44C235.308 25.2213 234.684 23.488 233.436 22.24C232.223 20.9573 230.715 20.316 228.912 20.316C227.144 20.316 225.636 20.9573 224.388 22.24C223.175 23.5227 222.568 25.2733 222.568 27.492C222.568 29.7107 223.175 31.4613 224.388 32.744C225.636 34.0267 227.144 34.668 228.912 34.668C230.68 34.668 232.188 34.0267 233.436 32.744C234.684 31.4267 235.308 29.6587 235.308 27.44Z" fill="white"/>
</svg>
